# xmcd
#
# Track frame offsets:
#	150
#	16203
#	32636
#	50208
#	70838
#	87413
#	110245
#	127974
#	144722
#	161643
#	175014
#	189040
#
# Disc length: 2824 seconds
#
# Revision: 1
# Processed by: cddbd v1.5.2PL0 Copyright (c) Steve Scherf et al.
# Submitted via: audiograbber 1.83.01
#
DISCID=a20b060c
DTITLE=Leo - 1323 - Leo - Verlangen (1997)
DYEAR=1900
DGENRE=National Folk
TTITLE0=Zo Ver Weg
TTITLE1=Groot Hart
TTITLE2=Baby I'd Love You To Want
TTITLE3=Echte Liefde
TTITLE4=Paradijs
TTITLE5=Zo Ben Jij
TTITLE6=Leaving On A Jetplane
TTITLE7=Verlangen
TTITLE8=Ik Weet Dat je Wacht
TTITLE9=Waarom Het Zo Moet Zijn
TTITLE10=I Can't Help Myself
TTITLE11=Four Tops Medley
EXTD=
EXTT0=
EXTT1=
EXTT2=
EXTT3=
EXTT4=
EXTT5=
EXTT6=
EXTT7=
EXTT8=
EXTT9=
EXTT10=
EXTT11=
PLAYORDER=
